<svg width="16" height="17" viewBox="0 0 16 17" fill="none" xmlns="http://www.w3.org/2000/svg">
<path d="M14.4201 11.7192H5.11543L5.58262 10.7676L13.3451 10.7536C13.6076 10.7536 13.8326 10.5661 13.8795 10.3067L14.9545 4.28951C14.9826 4.1317 14.9404 3.9692 14.8373 3.84576C14.7863 3.78501 14.7228 3.73608 14.651 3.70235C14.5792 3.66863 14.501 3.65092 14.4217 3.65045L4.54668 3.61764L4.4623 3.22076C4.40918 2.96764 4.18105 2.78326 3.92168 2.78326H1.50762C1.36133 2.78326 1.22104 2.84137 1.1176 2.94481C1.01417 3.04825 0.956055 3.18854 0.956055 3.33483C0.956055 3.48111 1.01417 3.6214 1.1176 3.72484C1.22104 3.82828 1.36133 3.88639 1.50762 3.88639H3.4748L3.84355 5.63951L4.75137 10.0348L3.58262 11.9426C3.52192 12.0246 3.48536 12.1218 3.47708 12.2234C3.4688 12.3251 3.48912 12.427 3.53574 12.5176C3.62949 12.7036 3.81855 12.8208 4.02793 12.8208H5.00918C4.79999 13.0986 4.687 13.437 4.6873 13.7848C4.6873 14.6692 5.40605 15.388 6.29043 15.388C7.1748 15.388 7.89355 14.6692 7.89355 13.7848C7.89355 13.4364 7.77793 13.0973 7.57168 12.8208H10.0889C9.87968 13.0986 9.76669 13.437 9.76699 13.7848C9.76699 14.6692 10.4857 15.388 11.3701 15.388C12.2545 15.388 12.9732 14.6692 12.9732 13.7848C12.9732 13.4364 12.8576 13.0973 12.6514 12.8208H14.4217C14.7248 12.8208 14.9732 12.5739 14.9732 12.2692C14.9723 12.1231 14.9137 11.9832 14.81 11.8802C14.7064 11.7772 14.5663 11.7193 14.4201 11.7192V11.7192ZM4.77637 4.70514L13.7732 4.73483L12.892 9.6692L5.8248 9.6817L4.77637 4.70514ZM6.29043 14.2786C6.01855 14.2786 5.79668 14.0567 5.79668 13.7848C5.79668 13.513 6.01855 13.2911 6.29043 13.2911C6.5623 13.2911 6.78418 13.513 6.78418 13.7848C6.78418 13.9158 6.73216 14.0414 6.63956 14.134C6.54697 14.2266 6.42138 14.2786 6.29043 14.2786V14.2786ZM11.3701 14.2786C11.0982 14.2786 10.8764 14.0567 10.8764 13.7848C10.8764 13.513 11.0982 13.2911 11.3701 13.2911C11.642 13.2911 11.8639 13.513 11.8639 13.7848C11.8639 13.9158 11.8118 14.0414 11.7193 14.134C11.6267 14.2266 11.5011 14.2786 11.3701 14.2786V14.2786Z" fill="white"/>
</svg>
